<?xml version="1.0" encoding="UTF-8" standalone="no"?>
<!-- Created with Inkscape (http://www.inkscape.org/) -->

<svg
   version="1.1"
   id="svg46"
   width="413.57901"
   height="110.33349"
   viewBox="0 0 413.57901 110.33349"
   sodipodi:docname="viv53-logo-bgremoved-cropped-1.svg"
   inkscape:version="1.2.2 (b0a8486541, 2022-12-01)"
   xmlns:inkscape="http://www.inkscape.org/namespaces/inkscape"
   xmlns:sodipodi="http://sodipodi.sourceforge.net/DTD/sodipodi-0.dtd"
   xmlns="http://www.w3.org/2000/svg"
   xmlns:svg="http://www.w3.org/2000/svg">
  <defs
     id="defs50" />
  <sodipodi:namedview
     id="namedview48"
     pagecolor="#ffffff"
     bordercolor="#000000"
     borderopacity="0.25"
     inkscape:showpageshadow="2"
     inkscape:pageopacity="0.0"
     inkscape:pagecheckerboard="0"
     inkscape:deskcolor="#d1d1d1"
     showgrid="false"
     inkscape:zoom="1.696"
     inkscape:cx="192.8066"
     inkscape:cy="80.778302"
     inkscape:window-width="1920"
     inkscape:window-height="1022"
     inkscape:window-x="0"
     inkscape:window-y="0"
     inkscape:window-maximized="1"
     inkscape:current-layer="g52" />
  <g
     inkscape:groupmode="layer"
     inkscape:label="Image"
     id="g52"
     transform="translate(-43.130203,-216.5)">
    <g
       id="g214">
      <path
         style="fill:#f7eaab"
         d="m 43.394956,325.58685 c -0.299257,-0.77985 -0.35297,-2.69342 -0.119362,-4.25238 0.357181,-2.38361 0.448575,-2.23798 0.574574,0.91553 L 44,326 h 205.93963 205.93964 l 0.41521,-3.50865 0.41521,-3.50866 -0.10485,3.75866 L 456.5,326.5 250.21953,326.75238 C 72.924936,326.9693 43.862603,326.80552 43.394956,325.58685 Z M 412.5,284 c 0.99549,-1.1 2.03498,-2 2.30998,-2 0.275,0 -0.31449,0.9 -1.30998,2 -0.99549,1.1 -2.03498,2 -2.30998,2 -0.275,0 0.31449,-0.9 1.30998,-2 z m -45.42105,-11.58333 c 0.048,-1.16495 0.28494,-1.4019 0.60416,-0.60417 0.28887,0.72187 0.25335,1.58438 -0.0789,1.91667 -0.33229,0.33229 -0.56864,-0.25834 -0.52522,-1.3125 z m 36,-1 c 0.048,-1.16495 0.28494,-1.4019 0.60416,-0.60417 0.28887,0.72187 0.25335,1.58438 -0.0789,1.91667 -0.33229,0.33229 -0.56864,-0.25834 -0.52522,-1.3125 z m -36,-3 c 0.048,-1.16495 0.28494,-1.4019 0.60416,-0.60417 0.28887,0.72187 0.25335,1.58438 -0.0789,1.91667 -0.33229,0.33229 -0.56864,-0.25834 -0.52522,-1.3125 z M 135.28601,259.5 c 0.008,-2.75 0.20172,-3.75631 0.43157,-2.23625 0.22986,1.52006 0.22371,3.77006 -0.0136,5 -0.23736,1.22994 -0.42542,-0.0138 -0.41792,-2.76375 z M 327.75,263.26276 c 2.8875,-0.202 7.6125,-0.202 10.5,0 2.8875,0.202 0.525,0.36728 -5.25,0.36728 -5.775,0 -8.1375,-0.16528 -5.25,-0.36728 z m -4.67105,-2.84609 c 0.048,-1.16495 0.28494,-1.4019 0.60416,-0.60417 0.28887,0.72187 0.25335,1.58438 -0.0789,1.91667 -0.33229,0.33229 -0.56864,-0.25834 -0.52522,-1.3125 z M 412.40499,258.75 410.5,256.5 l 2.25,1.90499 c 2.11444,1.79022 2.70524,2.59501 1.90499,2.59501 -0.18976,0 -1.20226,-1.0125 -2.25,-2.25 z M 386,253.62244 c 0,-0.20765 0.7875,-0.99515 1.75,-1.75 1.58606,-1.24387 1.62143,-1.2085 0.37756,0.37756 C 386.82119,253.91575 386,254.44548 386,253.62244 Z m 17,-2 c 0,-0.20765 0.7875,-0.99515 1.75,-1.75 1.58606,-1.24387 1.62143,-1.2085 0.37756,0.37756 C 403.82119,251.91575 403,252.44548 403,251.62244 Z m -78.92105,-2.20577 c 0.048,-1.16495 0.28494,-1.4019 0.60416,-0.60417 0.28887,0.72187 0.25335,1.58437 -0.0789,1.91667 -0.33229,0.33229 -0.56864,-0.25834 -0.52522,-1.3125 z M 135.34281,241.5 c 0.004,-4.4 0.17944,-6.07561 0.39069,-3.72357 0.21124,2.35204 0.20827,5.95204 -0.007,8 -0.21487,2.04796 -0.38771,0.12357 -0.38408,-4.27643 z M 393,245.62244 c 0,-0.20765 0.7875,-0.99515 1.75,-1.75 1.58606,-1.24387 1.62143,-1.2085 0.37756,0.37756 C 393.82119,245.91575 393,246.44548 393,245.62244 Z m 17,-2 c 0,-0.20765 0.7875,-0.99515 1.75,-1.75 1.58606,-1.24387 1.62143,-1.2085 0.37756,0.37756 C 410.82119,243.91575 410,244.44548 410,243.62244 Z m -71.12139,-2.90457 c 0.4321,-0.43017 6.37369,-0.65325 13.20352,-0.49573 l 12.41787,0.28639 -13.20352,0.49573 c -7.26194,0.27266 -12.84998,0.14378 -12.41787,-0.28639 z M 378.25,240.25845 c 3.7125,-0.19241 9.7875,-0.19241 13.5,0 3.7125,0.19241 0.675,0.34983 -6.75,0.34983 -7.425,0 -10.4625,-0.15742 -6.75,-0.34983 z m -53.17105,-1.84178 c 0.048,-1.16495 0.28494,-1.4019 0.60416,-0.60417 0.28887,0.72187 0.25335,1.58437 -0.0789,1.91667 -0.33229,0.33229 -0.56864,-0.25834 -0.52522,-1.3125 z M 415.25218,232.5 c 0.0111,-2.2 0.21589,-2.98225 0.45508,-1.73834 0.23919,1.24391 0.23011,3.04391 -0.0202,4 -0.25029,0.95609 -0.446,-0.0617 -0.4349,-2.26166 z"
         id="path228" />
      <path
         style="fill:#f6db5e"
         d="m 146.75,319.25005 c 56.7875,-0.14267 149.7125,-0.14267 206.5,0 56.7875,0.14267 10.325,0.2594 -103.25,0.2594 -113.575,0 -160.0375,-0.11673 -103.25,-0.2594 z m 239.0625,-28.93316 c 0.72187,-0.28887 1.58438,-0.25335 1.91667,0.0789 0.33229,0.33229 -0.25834,0.56864 -1.3125,0.52522 -1.16495,-0.048 -1.4019,-0.28494 -0.60417,-0.60416 z M 124,286.5 c 1.29175,-1.375 2.57363,-2.5 2.84863,-2.5 0.275,0 -0.55688,1.125 -1.84863,2.5 -1.29175,1.375 -2.57363,2.5 -2.84863,2.5 -0.275,0 0.55688,-1.125 1.84863,-2.5 z m 195.45888,-1.56653 c -0.36253,-0.58659 -0.44468,-1.281 -0.18255,-1.54313 0.26212,-0.26213 0.74306,0.21781 1.06875,1.06653 0.67618,1.76211 0.0999,2.07206 -0.8862,0.4766 z M 361.5,284 c 0.99549,-1.1 2.03498,-2 2.30998,-2 0.275,0 -0.31449,0.9 -1.30998,2 -0.99549,1.1 -2.03498,2 -2.30998,2 -0.275,0 0.31449,-0.9 1.30998,-2 z m 0.42431,-25.75 -2.42431,-2.75 2.75,2.42431 c 2.57029,2.26589 3.20859,3.07569 2.42431,3.07569 -0.17912,0 -1.41662,-1.2375 -2.75,-2.75 z m -37.84536,-5.83333 c 0.048,-1.16495 0.28494,-1.4019 0.60416,-0.60417 0.28887,0.72187 0.25335,1.58437 -0.0789,1.91667 -0.33229,0.33229 -0.56864,-0.25834 -0.52522,-1.3125 z m 24.73355,-0.0998 c 0.72187,-0.28887 1.58438,-0.25335 1.91667,0.0789 0.33229,0.33229 -0.25834,0.56864 -1.3125,0.52522 -1.16495,-0.048 -1.4019,-0.28494 -0.60417,-0.60416 z M 337.232,249 c 0,-1.925 0.2058,-2.7125 0.45733,-1.75 0.25152,0.9625 0.25152,2.5375 0,3.5 -0.25153,0.9625 -0.45733,0.175 -0.45733,-1.75 z M 389,250.62244 c 0,-0.20765 0.7875,-0.99515 1.75,-1.75 1.58606,-1.24387 1.62143,-1.2085 0.37756,0.37756 C 389.82119,250.91575 389,251.44548 389,250.62244 Z M 372.29966,235 c 0,-3.025 0.18747,-4.2625 0.41659,-2.75 0.22913,1.5125 0.22913,3.9875 0,5.5 -0.22912,1.5125 -0.41659,0.275 -0.41659,-2.75 z"
         id="path226" />
      <path
         style="fill:#f3d42a"
         d="m 44.015313,324.25 c 0.01089,-1.24456 0.243907,-1.39002 0.806776,-0.50363 0.624222,0.98301 29.306028,1.30074 135.734691,1.50364 L 315.5,325.50728 179.75,325.75364 C 51.032098,325.98724 44.000793,325.90935 44.015313,324.25 Z m 374.289037,1.00324 c 5.94239,-0.17711 15.39239,-0.17644 21,10e-4 5.60761,0.17792 0.74565,0.32282 -10.80435,0.322 -11.55,-8.2e-4 -16.13804,-0.14638 -10.19565,-0.32348 z M 455.15789,324 c 0,-1.375 0.22698,-1.9375 0.50439,-1.25 0.27741,0.6875 0.27741,1.8125 0,2.5 -0.27741,0.6875 -0.50439,0.125 -0.50439,-1.25 z M 98.184982,295.75 c -0.147351,-4.58029 0.126924,-5.75 1.348262,-5.75 2.233286,0 11.358046,-4.78184 15.797756,-8.27883 3.95991,-3.11907 7.73366,-8.36593 9.14956,-12.72117 0.44702,-1.375 1.11427,-8.575 1.48277,-16 l 0.67,-13.5 0.18334,12.09477 c 0.21552,14.21856 -1.53631,21.09539 -6.92179,27.17147 -3.6153,4.07892 -11.46423,9.22537 -17.27347,11.32602 -3.323972,1.20196 -3.550706,1.57156 -3.89056,6.34204 L 98.369965,301.5 Z m 2.627518,3.56689 c 0.72187,-0.28887 1.58437,-0.25335 1.91667,0.0789 0.33229,0.33229 -0.25834,0.56864 -1.3125,0.52522 -1.16495,-0.048 -1.4019,-0.28494 -0.60417,-0.60416 z M 88.458128,286.44314 c -8.264789,-4.15825 -12.803479,-8.31269 -16.074751,-14.71383 -2.294114,-4.48906 -2.421666,-5.60584 -2.160707,-18.91796 0.205569,-10.48659 0.607244,-14.21378 1.55233,-14.40431 0.70125,-0.14137 0.81375,-0.0283 0.25,0.25129 -0.626359,0.31064 -1.025,5.90698 -1.025,14.38952 0,13.1105 0.146037,14.14687 2.630363,18.66667 1.446699,2.63201 3.835755,5.99235 5.309012,7.46741 C 81.707866,281.95381 92.500517,288 94.679933,288 c 0.949984,0 1.247231,-6.5787 1.287719,-28.5 0.04776,-25.85718 -0.100603,-28.5 -1.599911,-28.5 -0.908902,0 -5.691362,1.59711 -10.627689,3.54912 -4.936327,1.95202 -9.146562,3.3777 -9.356078,3.16819 C 73.735098,237.06843 92.406566,230 94.76947,230 H 97 v 29.44098 c 0,16.19254 -0.373041,29.67154 -0.82898,29.95332 -0.455939,0.28179 -3.92674,-1.04623 -7.712892,-2.95116 z M 191.75,289.29427 c 1.2375,-0.23836 3.2625,-0.23836 4.5,0 1.2375,0.23835 0.225,0.43337 -2.25,0.43337 -2.475,0 -3.4875,-0.19502 -2.25,-0.43337 z m 7.25,0.31272 c 0,-0.21616 0.69837,-0.661 1.55194,-0.98855 0.88992,-0.34149 1.29132,-0.17385 0.94098,0.39301 C 200.90566,289.96166 199,290.4169 199,289.60699 Z m 35.26903,-0.29998 c 0.97297,-0.25354 2.32297,-0.23687 3,0.0371 0.67703,0.27393 -0.11903,0.48137 -1.76903,0.46099 -1.65,-0.0204 -2.20394,-0.2445 -1.23097,-0.49804 z m 7.98097,0.004 c 0.9625,-0.25152 2.5375,-0.25152 3.5,0 0.9625,0.25153 0.175,0.45733 -1.75,0.45733 -1.925,0 -2.7125,-0.2058 -1.75,-0.45733 z m 40,-0.0269 c 1.5125,-0.22913 3.9875,-0.22913 5.5,0 1.5125,0.22912 0.275,0.41659 -2.75,0.41659 -3.025,0 -4.2625,-0.18747 -2.75,-0.41659 z m 49.5625,0.0331 c 0.72187,-0.28887 1.58438,-0.25335 1.91667,0.0789 0.33229,0.33229 -0.25834,0.56864 -1.3125,0.52522 -1.16495,-0.048 -1.4019,-0.28494 -0.60417,-0.60416 z M 326.5,288 c -1.90836,-0.82005 -1.8969,-0.86265 0.25,-0.92971 1.2375,-0.0387 2.25,0.37971 2.25,0.92971 0,0.55 -0.1125,0.96837 -0.25,0.92971 -0.1375,-0.0387 -1.15,-0.45702 -2.25,-0.92971 z M 124,285 c 0,-0.55 0.47656,-1 1.05902,-1 0.58246,0 0.7809,0.45 0.44098,1 -0.33992,0.55 -0.81648,1 -1.05902,1 C 124.19844,286 124,285.55 124,285 Z m 246.45888,-0.0665 c -0.36253,-0.58659 -0.44468,-1.281 -0.18255,-1.54313 0.26212,-0.26213 0.74306,0.21781 1.06875,1.06653 0.67618,1.76211 0.0999,2.07206 -0.8862,0.4766 z M 412,283.5 c 1.29175,-1.375 2.57363,-2.5 2.84863,-2.5 0.275,0 -0.55688,1.125 -1.84863,2.5 -1.29175,1.375 -2.57363,2.5 -2.84863,2.5 -0.275,0 0.55688,-1.125 1.84863,-2.5 z m -47.96937,-3 c 0,-0.55 0.43621,-1.675 0.96937,-2.5 0.53316,-0.825 0.96937,-1.05 0.96937,-0.5 0,0.55 -0.43621,1.675 -0.96937,2.5 -0.53316,0.825 -0.96937,1.05 -0.96937,0.5 z m -23.7616,-1.19299 c 0.97297,-0.25354 2.32297,-0.23687 3,0.0371 0.67703,0.27393 -0.11903,0.48137 -1.76903,0.46099 -1.65,-0.0204 -2.20394,-0.2445 -1.23097,-0.49804 z m 50.48097,0.0307 c 0.6875,-0.27741 1.8125,-0.27741 2.5,0 0.6875,0.27741 0.125,0.50439 -1.25,0.50439 -1.375,0 -1.9375,-0.22698 -1.25,-0.50439 z M 417.19495,271.5 c 0.0204,-1.65 0.2445,-2.20394 0.49804,-1.23097 0.25354,0.97297 0.23687,2.32297 -0.0371,3 -0.27393,0.67703 -0.48137,-0.11903 -0.46099,-1.76903 z m -64.116,-0.0833 c 0.048,-1.16495 0.28494,-1.4019 0.60416,-0.60417 0.28887,0.72187 0.25335,1.58438 -0.0789,1.91667 -0.33229,0.33229 -0.56864,-0.25834 -0.52522,-1.3125 z M 209,269.5 c 0,-0.825 0.43588,-1.5 0.96862,-1.5 0.53273,0 0.70959,0.675 0.39301,1.5 -0.31659,0.825 -0.75246,1.5 -0.96862,1.5 C 209.17686,271 209,270.325 209,269.5 Z m 156.45888,-4.56653 c -0.36253,-0.58659 -0.44468,-1.281 -0.18255,-1.54313 0.26212,-0.26213 0.74306,0.21781 1.06875,1.06653 0.67618,1.76211 0.0999,2.07206 -0.8862,0.4766 z m 50,0 c -0.36253,-0.58659 -0.44468,-1.281 -0.18255,-1.54313 0.26212,-0.26213 0.74306,0.21781 1.06875,1.06653 0.67618,1.76211 0.0999,2.07206 -0.8862,0.4766 z m -28.79221,-1.60014 c -0.91541,-0.9154 -0.84491,-9.10479 0.0833,-9.68027 0.4125,-0.25574 0.59585,1.71634 0.40744,4.38241 l -0.34257,4.84739 4.84257,0.37832 4.84256,0.37832 -4.58333,0.18025 c -2.52084,0.0991 -4.88334,-0.11975 -5.25,-0.48642 z M 324.232,257 c 0,-1.925 0.2058,-2.7125 0.45733,-1.75 0.25152,0.9625 0.25152,2.5375 0,3.5 -0.25153,0.9625 -0.45733,0.175 -0.45733,-1.75 z M 356,255 c -0.825,-0.53316 -1.05,-0.96937 -0.5,-0.96937 0.55,0 1.675,0.43621 2.5,0.96937 0.825,0.53316 1.05,0.96937 0.5,0.96937 -0.55,0 -1.675,-0.43621 -2.5,-0.96937 z m -78.54112,-2.06653 c -0.36253,-0.58659 -0.44468,-1.281 -0.18255,-1.54313 0.26212,-0.26213 0.74306,0.21781 1.06875,1.06653 0.67618,1.76211 0.0999,2.07206 -0.8862,0.4766 z m 65.30278,-0.64073 c 1.24391,-0.23919 3.04391,-0.23011 4,0.0202 0.95609,0.25029 -0.0617,0.446 -2.26166,0.4349 -2.2,-0.0111 -2.98225,-0.21589 -1.73834,-0.45508 z M 405,248.62244 c 0,-0.20765 0.7875,-0.99515 1.75,-1.75 1.58606,-1.24387 1.62143,-1.2085 0.37756,0.37756 C 405.82119,248.91575 405,249.44548 405,248.62244 Z m -13,-1 c 0,-0.20765 0.7875,-0.99515 1.75,-1.75 1.58606,-1.24387 1.62143,-1.2085 0.37756,0.37756 C 392.82119,247.91575 392,248.44548 392,247.62244 Z m -54.92105,-3.20577 c 0.048,-1.16495 0.28494,-1.4019 0.60416,-0.60417 0.28887,0.72187 0.25335,1.58437 -0.0789,1.91667 -0.33229,0.33229 -0.56864,-0.25834 -0.52522,-1.3125 z m -155.73387,-0.9598 c -0.32569,-0.84872 -0.36872,-1.76657 -0.0956,-2.03966 0.27309,-0.2731 0.73656,0.42131 1.02992,1.54313 0.62315,2.38293 -0.0692,2.75089 -0.9343,0.49653 z m 118.21921,0.25 c 0.37553,-0.98622 0.93469,-1.54122 1.24258,-1.23333 0.30789,0.30789 6.4e-4,1.11479 -0.68278,1.79313 -0.98762,0.98026 -1.10248,0.8654 -0.5598,-0.5598 z m 25.51466,-0.2902 c 0.048,-1.16495 0.28494,-1.4019 0.60416,-0.60417 0.28887,0.72187 0.25335,1.58437 -0.0789,1.91667 -0.33229,0.33229 -0.56864,-0.25834 -0.52522,-1.3125 z m -52,-1 c 0.048,-1.16495 0.28494,-1.4019 0.60416,-0.60417 0.28887,0.72187 0.25335,1.58437 -0.0789,1.91667 -0.33229,0.33229 -0.56864,-0.25834 -0.52522,-1.3125 z M 221,242.05902 c 0,-0.51754 0.44485,-1.21592 0.98855,-1.55194 0.56686,-0.35034 0.7345,0.0511 0.39301,0.94098 C 221.71677,243.18048 221,243.49745 221,242.05902 Z m 191.5149,-2.34023 c 0.96581,-1.52966 2.00756,-2.52966 2.315,-2.22222 0.30745,0.30744 -0.48276,1.55899 -1.75601,2.78121 l -2.315,2.22222 z m -233.05602,-0.78532 c -0.36253,-0.58659 -0.44468,-1.281 -0.18255,-1.54313 0.26212,-0.26213 0.74306,0.21781 1.06875,1.06653 0.67618,1.76211 0.0999,2.07206 -0.8862,0.4766 z m 92,0 c -0.36253,-0.58659 -0.44468,-1.281 -0.18255,-1.54313 0.26212,-0.26213 0.74306,0.21781 1.06875,1.06653 0.67618,1.76211 0.0999,2.07206 -0.8862,0.4766 z m 85.23579,0.34049 6.19468,-0.36282 0.40341,-3.96299 0.40342,-3.963 -0.0981,4.25743 -0.0981,4.25742 -6.5,0.0684 -6.5,0.0684 6.19467,-0.36281 z m 24.05533,-0.0112 c 2.8875,-0.202 7.6125,-0.202 10.5,0 2.8875,0.202 0.525,0.36728 -5.25,0.36728 -5.775,0 -8.1375,-0.16528 -5.25,-0.36728 z m -258.10959,-1.76647 c -1.57277,-0.82027 -4.72277,-2.12415 -7,-2.89753 -2.27722,-0.77337 -7.17791,-2.62233 -10.89041,-4.10879 L 98,227.78732 v -4.89366 c 0,-4.44261 0.207383,-4.88297 2.25,-4.77766 1.69317,0.0873 1.81691,0.22918 0.5,0.57333 -1.290625,0.33727 -1.75,1.48455 -1.75,4.37057 0,4.25044 0.688211,4.74659 11.97136,8.63056 5.62806,1.93732 15.02864,6.2151 15.02864,6.83885 0,0.67752 -0.19444,0.61773 -3.35959,-1.03302 z M 326.232,235 c 0,-1.925 0.2058,-2.7125 0.45733,-1.75 0.25152,0.9625 0.25152,2.5375 0,3.5 -0.25153,0.9625 -0.45733,0.175 -0.45733,-1.75 z m -70.66771,-0.70687 c -0.54268,-1.4252 -0.42782,-1.54006 0.5598,-0.5598 0.68342,0.67834 0.99067,1.48524 0.68278,1.79313 -0.30789,0.30789 -0.86705,-0.24711 -1.24258,-1.23333 z m 48,0.41374 c 0.37553,-0.98622 0.93469,-1.54122 1.24258,-1.23333 0.30789,0.30789 6.4e-4,1.11479 -0.68278,1.79313 -0.98762,0.98026 -1.10248,0.8654 -0.5598,-0.5598 z m -34.10541,-0.7734 c -0.36253,-0.58659 -0.44468,-1.281 -0.18255,-1.54313 0.26212,-0.26213 0.74306,0.21781 1.06875,1.06653 0.67618,1.76211 0.0999,2.07206 -0.8862,0.4766 z M 133.5,232 c -0.33992,-0.55 -0.14148,-1 0.44098,-1 0.58246,0 1.05902,0.45 1.05902,1 0,0.55 -0.19844,1 -0.44098,1 -0.24254,0 -0.7191,-0.45 -1.05902,-1 z m -3.99292,-1.98855 c -0.35034,-0.56686 0.0511,-0.7345 0.94098,-0.39301 1.73242,0.66479 2.04939,1.38156 0.61096,1.38156 -0.51754,0 -1.21592,-0.44485 -1.55194,-0.98855 z m -5,-2 c -0.35034,-0.56686 0.0511,-0.7345 0.94098,-0.39301 1.73242,0.66479 2.04939,1.38156 0.61096,1.38156 -0.51754,0 -1.21592,-0.44485 -1.55194,-0.98855 z"
         id="path224" />
      <path
         style="fill:#a5a5a2"
         d="M 90,298.81729 C 81.642512,295.65893 71.38727,288.42712 66.970755,282.57749 60.622705,274.16956 60,271.26238 60,250.03368 v -18.71486 l 17.34231,-6.65941 C 86.880581,220.99673 95.005237,218 95.397101,218 c 0.391865,0 0.575325,2.08876 0.40769,4.64169 L 95.5,227.28338 88,230.20431 c -4.125,1.60652 -10.364805,4.1075 -13.866233,5.55773 l -6.366233,2.6368 0.475616,15.05058 c 0.52145,16.50097 1.109296,18.67985 6.83893,25.34886 C 78.471814,282.74376 91.704568,291 94.638488,291 95.605636,291 96,292.44826 96,296 c 0,2.75 -0.1125,4.97655 -0.25,4.94789 -0.1375,-0.0286 -2.725,-0.98742 -5.75,-2.1306 z m 9,-39.21025 c 0,-29.00329 0.02854,-29.41234 2.01558,-28.89271 1.10857,0.28989 2.26013,0.92277 2.55902,1.40638 0.29889,0.48361 1.42298,0.87929 2.49799,0.87929 1.075,0 2.73594,0.3975 3.69098,0.88333 2.97399,1.51288 6.58477,2.93083 10.5907,4.15896 l 3.85427,1.18164 -0.36481,15.13803 c -0.3432,14.24086 -0.51236,15.34297 -2.85427,18.59583 -4.8224,6.6982 -10.78585,11.38788 -18.66975,14.68199 L 99,289.02684 Z"
         id="path222" />
      <path
         style="fill:#ccb853"
         d="m 96.973003,295.91667 c -0.01485,-2.97917 -0.003,-19.26572 0.0264,-36.19235 l 0.05339,-30.77567 -2.776397,0.53165 -2.776396,0.53166 2.702106,-1.07335 c 2.421495,-0.96188 2.739369,-1.66348 3.060916,-6.75598 l 0.358809,-5.68263 0.189085,5.59719 c 0.158453,4.69045 0.553579,5.78479 2.439084,6.75527 l 2.25,1.15808 -2.26383,-0.57705 -2.263823,-0.57704 0.05375,35.69852 c 0.02956,19.63419 -0.189218,35.94149 -0.486174,36.23844 -0.296955,0.29696 -0.552068,-1.89758 -0.566916,-4.87674 z M 92,289 c -0.825,-0.53316 -1.05,-0.96937 -0.5,-0.96937 0.55,0 1.675,0.43621 2.5,0.96937 0.825,0.53316 1.05,0.96937 0.5,0.96937 -0.55,0 -1.675,-0.43621 -2.5,-0.96937 z m 9,0 c 0.825,-0.53316 1.95,-0.96937 2.5,-0.96937 0.55,0 0.325,0.43621 -0.5,0.96937 -0.825,0.53316 -1.95,0.96937 -2.5,0.96937 -0.55,0 -0.325,-0.43621 0.5,-0.96937 z m -13.492921,-1.98855 c -0.350339,-0.56686 0.05106,-0.7345 0.940983,-0.39301 1.732417,0.66479 2.049387,1.38156 0.610955,1.38156 -0.517541,0 -1.215913,-0.44485 -1.551938,-0.98855 z m 18.226251,-0.13554 c 0.67834,-0.68342 1.48524,-0.99067 1.79313,-0.68278 0.30789,0.30789 -0.24711,0.86705 -1.23333,1.24258 -1.4252,0.54268 -1.54006,0.42782 -0.5598,-0.5598 z M 109,285.65019 c 0,-0.23109 1.18041,-1.1936 2.62312,-2.13891 1.44272,-0.9453 2.31766,-1.22448 1.94431,-0.62038 C 112.85397,284.04529 109,286.37357 109,285.65019 Z M 78.19179,280.35218 73.5,275.70436 l 5,4.31828 c 2.75,2.37505 5.1875,4.46657 5.416667,4.64782 0.229166,0.18125 0.09047,0.32954 -0.30821,0.32954 -0.398682,0 -2.836182,-2.09152 -5.416667,-4.64782 z m 39.30046,-1.35581 c 4.74138,-5.54019 4.80681,-5.60165 3.72198,-3.49637 -0.56682,1.1 -2.30941,3.12336 -3.87241,4.49637 L 114.5,282.49273 Z m 5.07204,-7.2895 c 0.37553,-0.98622 0.93469,-1.54122 1.24258,-1.23333 0.30789,0.30789 6.4e-4,1.11479 -0.68278,1.79313 -0.98762,0.98026 -1.10248,0.8654 -0.5598,-0.5598 z m -51.940751,-1.24553 c -0.964979,-2.51469 -0.680311,-3.16355 0.498534,-1.13634 0.58369,1.00375 0.850598,2.03566 0.593129,2.29313 -0.257468,0.25747 -0.748717,-0.26309 -1.091663,-1.15679 z m 53.455411,-4.04467 c 0.048,-1.16495 0.28494,-1.4019 0.60416,-0.60417 0.28887,0.72187 0.25335,1.58438 -0.0789,1.91667 -0.3323,0.33229 -0.56864,-0.25834 -0.52522,-1.3125 z M 69.180248,252.80902 c -0.09914,-7.53004 0.157252,-13.901 0.569752,-14.15768 0.4125,-0.25669 0.630756,3.87926 0.485013,9.19098 -0.469551,17.11325 -0.870023,18.999 -1.054765,4.9667 z m 55.815492,-1.51254 c -0.27266,-7.26194 -0.14378,-12.84998 0.28639,-12.41787 0.43017,0.4321 0.65325,6.37369 0.49573,13.20352 L 125.49147,264.5 Z M 73,237 c 0.825,-0.53316 1.95,-0.96937 2.5,-0.96937 0.55,0 0.325,0.43621 -0.5,0.96937 -0.825,0.53316 -1.95,0.96937 -2.5,0.96937 -0.55,0 -0.325,-0.43621 0.5,-0.96937 z m 47,0 c -0.90129,-0.58246 -1.02463,-0.97549 -0.30902,-0.98469 0.65504,-0.008 1.4691,0.43469 1.80902,0.98469 0.7673,1.24153 0.42112,1.24153 -1.5,0 z m -42,-2 c 0.825,-0.53316 1.95,-0.96937 2.5,-0.96937 0.55,0 0.325,0.43621 -0.5,0.96937 -0.825,0.53316 -1.95,0.96937 -2.5,0.96937 -0.55,0 -0.325,-0.43621 0.5,-0.96937 z m 31.50708,-1.98855 c -0.35034,-0.56686 0.0511,-0.7345 0.94098,-0.39301 1.73242,0.66479 2.04939,1.38156 0.61096,1.38156 -0.51754,0 -1.21592,-0.44485 -1.55194,-0.98855 z M 88,231 c 0.825,-0.53316 1.95,-0.96937 2.5,-0.96937 0.55,0 0.325,0.43621 -0.5,0.96937 -0.825,0.53316 -1.95,0.96937 -2.5,0.96937 -0.55,0 -0.325,-0.43621 0.5,-0.96937 z m 16,0 c -0.825,-0.53316 -1.05,-0.96937 -0.5,-0.96937 0.55,0 1.675,0.43621 2.5,0.96937 0.825,0.53316 1.05,0.96937 0.5,0.96937 -0.55,0 -1.675,-0.43621 -2.5,-0.96937 z"
         id="path220" />
      <path
         style="fill:#fbd503"
         d="M 180.55678,325.30916 C 79.851223,325.07303 45.432333,324.69953 44.899297,323.83706 42.456298,319.8842 36.268499,320 249.94032,320 c 112.59949,0 204.96192,0.23558 205.24985,0.5235 0.28792,0.28793 0.33141,1.52543 0.0966,2.75 l -0.42686,2.2265 -69.67997,0.0628 c -38.32398,0.0345 -130.40442,-0.0796 -204.62319,-0.25363 z M 99.078947,296.45089 c -0.07674,-4.90803 0.02096,-5.08524 3.496603,-6.34205 5.85159,-2.11596 13.69329,-7.25157 17.31933,-11.3426 C 125.06392,272.93435 127,265.75702 127,252.42656 c 0,-6.19464 -0.27726,-11.9855 -0.61612,-12.86858 -0.6312,-1.64486 -7.45603,-5.12869 -15.41252,-7.86752 C 99.646924,227.79228 99,227.32193 99,222.98658 99,220.06618 99.411246,219 100.5377,219 c 2.26978,0 21.17314,7.38117 30.4623,11.89457 l 3.5,1.70058 0.27571,16.39814 c 0.24017,14.28429 0.0151,17.16986 -1.74597,22.38467 -2.27101,6.72482 -5.89724,12.60492 -7.77974,12.61521 -0.6875,0.004 -1.25,0.62842 -1.25,1.38814 C 124,288.07662 106.55483,299 102.25029,299 c -1.14599,0 -2.310597,0.5625 -2.588009,1.25 -0.277413,0.6875 -0.539913,-1.0221 -0.583334,-3.79911 z M 333.75,289.75169 C 331.1375,289.1539 329,288.29022 329,287.8324 329,287.37458 327.71974,287 326.15499,287 c -1.56476,0 -3.58008,-0.81223 -4.47848,-1.80496 -1.51644,-1.67565 -1.48346,-2.0876 0.46035,-5.75 1.1516,-2.16977 2.2233,-4.08893 2.38157,-4.2648 0.15827,-0.17587 2.21175,0.66179 4.5633,1.86145 5.64551,2.88013 17.1443,3.2138 21.07307,0.6115 5.02918,-3.33117 4.46938,-10.24481 -1.06108,-13.10473 -2.11579,-1.09411 -6.21114,-1.58146 -13.98211,-1.66388 l -10.98991,-0.11656 0.40669,-4.63401 c 0.22367,-2.54871 0.95577,-10.14651 1.62688,-16.88401 L 327.37548,229 H 345.18774 363 v 4.87972 4.87972 l -12.40832,0.71569 c -13.80163,0.79604 -13.54783,0.63436 -13.57803,8.64987 -0.0123,3.2641 0.29747,3.68722 3.11135,4.25 1.71875,0.34375 5.04461,0.625 7.3908,0.625 7.08941,0 17.4842,6.01738 17.4842,10.12132 0,0.96835 0.45,2.03876 1,2.37868 1.84607,1.14094 1.07631,9.04075 -1.32448,13.59272 -3.68275,6.98258 -10.34587,10.56076 -21.17552,11.37153 -2.75,0.20588 -7.1375,-0.11478 -9.75,-0.71256 z m 49.51399,-0.2687 c -7.84801,-1.78349 -12.26507,-4.03833 -12.26025,-6.25867 0.003,-1.58586 3.49683,-8.22432 4.32792,-8.22432 0.19859,0 1.71128,0.67358 3.36155,1.49684 8.56315,4.27186 19.93481,3.78023 24.09309,-1.04162 C 407.64845,269.81716 401.215,263 391.03212,263 H 387 v -4.5 c 0,-2.94786 0.60361,-5.1077 1.75,-6.26186 0.9625,-0.96902 3.52023,-3.92883 5.68385,-6.57735 5.12651,-6.27547 4.24898,-6.83094 -10.18385,-6.44632 L 373,239.51427 V 234.25713 229 h 21 21 v 3.56982 c 0,3.8261 -2.84083,8.5045 -9.92513,16.3451 -3.9719,4.39594 -4.36108,6.08508 -1.40201,6.08508 0.85516,0 3.34414,1.00565 5.53108,2.23478 4.78084,2.68698 7.79606,8.29607 7.79606,14.50271 0,13.65321 -15.61061,21.86456 -33.73601,17.7455 z M 187.43619,287.5 c -1.48303,-2.31682 -2.23666,-3.99682 -10.54179,-23.5 -3.39603,-7.975 -7.91156,-18.51822 -10.0345,-23.42938 C 164.73695,235.65947 163,231.02549 163,230.27291 c 0,-1.04359 1.48333,-1.29769 6.25,-1.07063 6.80334,0.32408 6.72513,0.24939 10.78234,10.29772 0.66621,1.65 1.8002,4.14147 2.51996,5.5366 0.71976,1.39513 2.26004,4.95027 3.42284,7.90032 4.06072,10.30215 8.37935,19.11158 9.23001,18.82803 0.81298,-0.27099 6.40972,-12.22181 9.25621,-19.76495 1.42616,-3.77927 6.80573,-15.93845 8.84859,-20 1.10885,-2.20458 1.992,-2.53518 7.47374,-2.79772 3.41897,-0.16374 6.21631,-0.0714 6.21631,0.2051 0,0.27655 -1.3037,3.33552 -2.8971,6.79772 C 218.34107,248.72456 211,265.96035 211,266.96885 211,267.53598 210.65957,268 210.24348,268 c -0.41609,0 -1.31199,1.77979 -1.9909,3.95508 -1.75412,5.62041 -7.08612,17.03359 -7.99111,17.10503 -8.63112,0.68139 -11.62346,0.31739 -12.82528,-1.56011 z m 48.29903,1.80224 -2.76477,-0.43794 0.26477,-29.68215 L 233.5,229.5 l 6.75,-0.29569 6.75,-0.29569 V 258.95431 289 l -2.25,0.0136 c -1.2375,0.008 -3.15,0.17405 -4.25,0.37009 -1.1,0.19604 -3.24415,0.15937 -4.76478,-0.0815 z m 49.01478,-0.0512 c -3.1625,-0.19298 -5.75,-0.78332 -5.75,-1.31186 0,-0.52855 -0.95236,-3.09359 -2.11636,-5.7001 -1.164,-2.6065 -2.68466,-6.0891 -3.37925,-7.7391 -0.69459,-1.65 -2.82343,-6.6 -4.73075,-11 -3.31111,-7.63839 -7.29778,-16.94412 -10.49607,-24.5 -1.54711,-3.65503 -3.43003,-7.96676 -4.03943,-9.25 -0.1959,-0.4125 2.73378,-0.75 6.5104,-0.75 h 6.86656 l 1.75166,4.25 c 0.96341,2.3375 2.17501,5.03139 2.69245,5.98643 0.51743,0.95504 0.94079,2.41754 0.94079,3.25 0,0.83246 0.40122,1.51357 0.89159,1.51357 0.49038,0 1.19826,1.2375 1.57307,2.75 0.37482,1.5125 2.2236,6.05261 4.10841,10.08913 1.88481,4.03653 3.42693,7.56852 3.42693,7.84888 0,1.20149 3.2912,7.31199 3.93834,7.31199 0.6912,0 4.32822,-7.40939 7.60842,-15.5 0.89196,-2.2 2.73806,-6.475 4.10246,-9.5 5.43846,-12.05761 6.58078,-14.5597 7.30475,-16 0.51924,-1.033 2.66743,-1.59269 6.90001,-1.79772 3.38031,-0.16374 6.14602,-0.14159 6.14602,0.0492 0,0.19082 -2.28396,5.49979 -5.07547,11.79772 -2.79151,6.29792 -5.31812,12.12577 -5.61469,12.95077 -0.29657,0.825 -2.03007,4.875 -3.85221,9 -1.82215,4.125 -4.13304,9.51942 -5.13531,11.98759 -3.06131,7.5387 -6.76799,14.41871 -7.82232,14.51911 -0.55,0.0524 -3.5875,-0.0627 -6.75,-0.25564 z M 87.531439,284.93193 C 80.457556,281.26178 77.148857,278.1158 73.630363,271.71452 71.147962,267.19823 71,266.15239 71,253.12248 v -13.80656 l 9.75,-3.75511 c 5.3625,-2.0653 10.992161,-3.98814 12.510358,-4.27297 l 2.760358,-0.51788 -0.05285,28.61502 C 95.927208,281.39744 95.630034,288 94.679933,288 c -0.679294,0 -3.896116,-1.38063 -7.148494,-3.06807 z"
         id="path218" />
      <path
         style="fill:#b3a774"
         d="m 96,296 c 0,-4.08312 -0.320907,-5.00583 -1.75,-5.0318 -0.9625,-0.0175 -2.623508,-0.6925 -3.69113,-1.5 -2.469041,-1.86749 -1.730399,-1.85564 2.819006,0.0452 C 96.854126,290.96589 97,291.22766 97,296.01342 97,298.75604 96.775,301 96.5,301 96.225,301 96,298.75 96,296 Z m 2.597766,-6.73557 C 97.892804,288.55947 97.776182,229 98.479764,229 c 0.492607,0 7.452106,2.53577 11.020236,4.01534 1.1,0.45613 4.1375,1.60041 6.75,2.54285 2.6125,0.94244 4.75,1.90771 4.75,2.14506 0,0.80008 -6.49506,-1.40797 -11.23643,-3.81992 C 108.80853,233.3975 107.14759,233 106.07259,233 c -1.07501,0 -2.1991,-0.39568 -2.49799,-0.87929 -0.29889,-0.48361 -1.45045,-1.11649 -2.55902,-1.40638 C 99.028587,230.19471 99,230.60386 99,259.56223 c 0,25.70027 0.187646,29.30299 1.5,28.7994 0.825,-0.31659 1.5,-0.35061 1.5,-0.0756 0,0.8276 -2.759483,1.62116 -3.402234,0.97841 z m -15.699315,-4.02259 c -7.574751,-4.51343 -15.076219,-14.70183 -13.57767,-18.44102 0.328112,-0.81872 0.550584,-0.63383 0.600272,0.49884 0.213043,4.85646 8.036422,14.61767 14.260733,17.79308 C 86.281804,286.16409 88,287.2565 88,287.52032 c 0,0.73458 -0.178951,0.65466 -5.101549,-2.27848 z M 103,287.60699 c 0,-0.21616 0.69837,-0.661 1.55194,-0.98855 0.88992,-0.34149 1.29132,-0.17385 0.94098,0.39301 C 104.90566,287.96166 103,288.4169 103,287.60699 Z m 4,-2.08131 c 0,-0.26088 1.34287,-1.16874 2.98415,-2.01748 2.89688,-1.49804 7.62937,-5.96573 11.3267,-10.69294 2.5625,-3.27629 0.88411,0.0219 -1.98836,3.90733 C 116.3343,280.76451 107,287.43286 107,285.52568 Z M 123.15789,268 c 0,-1.375 0.22698,-1.9375 0.50439,-1.25 0.27741,0.6875 0.27741,1.8125 0,2.5 -0.27741,0.6875 -0.50439,0.125 -0.50439,-1.25 z m 1.05833,-15.66667 c -0.15483,-9.42849 -0.57111,-13.30986 -1.46622,-13.67105 -0.97906,-0.39506 -0.97226,-0.5215 0.0314,-0.58333 2.0494,-0.12627 2.30198,1.79664 1.96718,14.97652 L 124.43244,265.5 Z M 68.204163,251.41052 68,238.32103 70.547053,237.16052 C 74.05322,235.563 75.055987,235.76383 72,237.4515 c -2.415165,1.33378 -2.518522,1.81614 -3.045837,14.21457 L 68.408325,264.5 Z M 75,235.67884 c 0,-0.7277 11.154624,-4.85755 11.685699,-4.32647 0.232483,0.23248 -1.514193,1.1007 -3.881501,1.92939 -2.367309,0.82868 -5.091698,1.82743 -6.054198,2.21945 -0.9625,0.39202 -1.75,0.47195 -1.75,0.17763 z m 17.5,-7.1558 c 2.583559,-1.13205 3.082302,-1.98836 3.592896,-6.16878 l 0.592897,-4.85426 0.157103,5.15217 c 0.150441,4.93366 0.02354,5.19874 -2.992119,6.25 -4.242769,1.47904 -5.064875,1.24829 -1.350777,-0.37913 z"
         id="path216" />
    </g>
  </g>
</svg>
